<svg version="1.1" id="Layer_1" xmlns="http://www.w3.org/2000/svg" xmlns:xlink="http://www.w3.org/1999/xlink" x="0px" y="0px"
	 viewBox="0 0 270.3 207.7" style="enable-background:new 0 0 270.3 207.7;" xml:space="preserve">
<style type="text/css">
	.st0{fill:#0033A0;}
	.st1{fill:#FC6D27;}
</style>
<path class="st0" d="M225,5.5H31.2l40.2,36L8.1,202.1l156.2,0.1c41.5,0,54.9-8.9,68.2-47.8c6-25.4,3.5-42.2-18.8-52.2
	c32.3-3.9,39.5-26.5,47.9-49.6C272.3,19.3,255.8,5.5,225,5.5 M176.5,126.4l-10.6,27.4c-1.9,4.2-5.9,7-10.5,7.2H84.2l16.5-41.9h70.9
	C175.9,119.1,178.1,122.4,176.5,126.4z M203.6,53.2l-9.4,24.2c-1.8,4.2-5.9,7-10.5,7.2h-69.9L124.8,56l-10-10.1l84,0.1
	C203,46,205.2,49.2,203.6,53.2z"/>
<path class="st1" d="M264.5,14.9C257.3,5,244.1,0,225,0H16.8l48,43.1L0,207.6l164.3,0.1c23.4,0,37.3-3,47.8-10.3
	c10.7-7.4,18.1-19.4,25.6-41.2l0.1-0.3v-0.2c3.6-15,3.9-25.7,1.2-34.8c-2-6.4-5.8-12.1-11-16.3c8.8-3,16.5-8.4,22.2-15.6
	c7.4-9.3,11.7-20.9,15.8-32.1l0.9-2.4l0-0.1v-0.1C272.2,37.6,271.4,24.3,264.5,14.9 M213.7,102.2c22.3,10,24.9,26.8,18.8,52.2
	c-13.3,38.8-26.7,47.8-68.2,47.8l-156.2,0L71.4,41.5l-40.2-36H225c30.8,0,47.3,13.8,36.6,47.1C253.1,75.7,246,98.4,213.7,102.2
	L213.7,102.2z"/>
<path class="st1" d="M171.7,119.1h-70.9L84.2,161h71.2c4.6-0.2,8.7-3,10.5-7.2l10.6-27.4C178.1,122.4,175.9,119.1,171.7,119.1
	 M155.4,155.5H92.3l12.2-30.9h66.9l-10.5,27.1C159.7,153.8,157.7,155.3,155.4,155.5L155.4,155.5z"/>
<path class="st1" d="M198.7,46l-84-0.1l10,10.1l-10.9,28.5h69.9c4.6-0.2,8.6-3,10.5-7.2l9.4-24.2C205.2,49.2,203,45.9,198.7,46
	 M183.7,79.1h-61.8l9.3-24.4l-3.2-3.2h70.4l-9.3,24C188.1,77.5,186,78.9,183.7,79.1L183.7,79.1z"/>
</svg>